<?xml version="1.0" encoding="utf-8"?>
<!-- Generator: Adobe Illustrator 19.1.0, SVG Export Plug-In . SVG Version: 6.00 Build 0)  -->
<svg version="1.1" id="Calque_1" xmlns="http://www.w3.org/2000/svg" xmlns:xlink="http://www.w3.org/1999/xlink" x="0px" y="0px"
	 viewBox="-66 -40.4 595.3 595.3" style="enable-background:new -66 -40.4 595.3 595.3;" xml:space="preserve">
<style type="text/css">
	.st0{fill:#010202;stroke:#000000;stroke-miterlimit:10;}
	.st1{fill:#FFFFFF;stroke:#000000;stroke-miterlimit:10;}
	.st2{fill:none;}
	.st3{fill:#FFFFFF;}
	.st4{fill:#D3173B;}
	.st5{display:none;fill:none;stroke:#000000;stroke-width:8;stroke-miterlimit:10;}
	.st6{display:none;fill:#D3183C;}
	.st7{font-family:'RakoonPersonalUse';}
	.st8{font-size:110px;}
</style>
<circle class="st0" cx="160.9" cy="312.2" r="49.5"/>
<circle class="st0" cx="298.5" cy="312.2" r="49.5"/>
<circle class="st1" cx="160.9" cy="312.2" r="37.6"/>
<circle class="st1" cx="298.5" cy="312.2" r="35.5"/>
<rect x="210" y="304.2" class="st0" width="44.7" height="9"/>
<rect x="66.6" y="370.5" class="st2" width="321.7" height="109.8"/>
<rect x="82.1" y="212.8" class="st3" width="299.1" height="40.9"/>
<rect x="89.1" y="217.7" class="st4" width="286.6" height="31.2"/>
<line class="st5" x1="126.4" y1="217.2" x2="235.9" y2="107.9"/>
<line class="st5" x1="335.2" y1="217.7" x2="233.8" y2="111.5"/>
<path class="st6" d="M302.8,200.7c-0.1-0.1-0.3-0.2-0.4-0.4c0.6-1,0.9-2.2,0.7-3.5c-0.6-3.5-2.3-6-4.7-7.7
	c-3.7-4.6-8.3-8.3-12.8-12.1c-0.6-0.8-1.2-1.5-1.8-2.2c-1.7-1.9-3.7-3.2-5.9-4.4c-7-6.2-13.6-12.7-19.9-19.6
	c-1.2-1.4-2.7-1.8-4.1-1.5c-0.5-0.7-1.1-1.5-1.6-2.2c-0.7-1-1.5-2.1-2.2-3.1c-2.1-2.8-5.6-2.6-7.7-1c-1-1-1.9-2.1-2.7-3.2
	c1.5-3.8-2.3-6.9-5.7-6.4c-3.2-2.7-9.5,0-8.1,5.1c0.2,0.9,0.5,1.8,0.8,2.8c0,0,0,0,0,0.1c-0.2,0.1-0.4,0.3-0.6,0.4
	c-0.7-0.2-1.5-0.1-2.3,0.2l0,0c2.8-5.9-4.8-10.2-8.6-5c-1.9,2.5-3.7,5.1-5.4,7.7c-1.2,0-2.4,0.4-3.3,1.6c-0.3,0.3-0.5,0.7-0.8,1l0,0
	c-2.9,4.1-6.1,8-9.3,12c-1.2,0.2-2.4,0.9-3.2,2.2c-1.1,1.6-2.1,3.1-3.3,4.7c-0.3,0-0.6-0.1-0.9-0.1c-0.7,0-1.2,0.1-1.8,0.3
	c-0.5-0.2-1.1-0.3-1.8-0.3c-3.1,0-4.7,2.4-4.8,4.8c-0.6,0.2-1.3,0.6-1.8,1.2c-2.6,2.5-5,5.2-7.4,7.9h-0.1c-2.9,1.6-4.5,3.9-6.8,6.2
	c-0.7,0.7-1.5,1.4-2.2,2.1c-0.3,0.2-0.5,0.4-0.8,0.7c-0.7,0.7-1.4,1.4-2,2.1c-1.4,0.3-2.4,1.3-3,2.4l-0.1,0.1
	c-0.8,0.5-1.4,1.1-1.7,1.9c-0.2,0.2-0.5,0.4-0.7,0.6c-0.5,0.2-0.8,0.4-1.2,0.8c-0.4,0.2-0.7,0.5-0.9,0.8c-0.5,0.3-1,0.7-1.3,1.2
	c-0.4,0.3-0.7,0.6-0.9,1c-0.4,0.3-0.7,0.6-1,1c-0.3,0.3-0.6,0.6-0.9,1.1c-0.2,0.3-0.4,0.6-0.6,0.9c-0.6,0.3-1.2,0.7-1.6,1.2
	c-3.2,2.1-2.9,7.8,1.1,9c0.7,0.4,1.5,0.6,2.5,0.6c0.2,0,0.3,0,0.5,0s0.3,0,0.5,0s0.3,0,0.5,0c0.4,0.1,0.8,0.1,1.2,0.1l0,0
	c0.1,0,0.1,0,0.2,0c0.2,0,0.4,0,0.6,0c0.1,0,0.1,0,0.2,0c0.1,0,0.2,0,0.3,0s0.1,0,0.2,0c0.1,0,0.1,0,0.2,0c0.1,0,0.2,0,0.3,0
	s0.1,0,0.2,0H168c0.6,0,1.1-0.1,1.6-0.2c1.5,0,3,0,4.4,0c0.5,0.1,1,0.2,1.4,0.2c1.9,0,3.8-0.2,5.7-0.3c0.7,0,1.3-0.2,1.9-0.4
	c0.7,0.5,1.6,0.8,2.7,0.8h17.8c0.2,0,0.4,0,0.6,0h80.7c3.5,0,5.1-3,4.8-5.8c2.8,0.3,5.8,0.4,8.6,1.1
	C302.5,210.3,306.8,204,302.8,200.7z"/>
<polyline class="st4" points="351.7,209.5 232.9,91 114.1,209.5 351.3,209.5 "/>
<text transform="matrix(1 0 0 1 41.2026 451.2419)" class="st7 st8">L’intello</text>
</svg>
