<?xml version="1.0" encoding="utf-8"?>
<!-- Generator: Adobe Illustrator 19.1.0, SVG Export Plug-In . SVG Version: 6.00 Build 0)  -->
<svg version="1.1" id="Capa_1" xmlns="http://www.w3.org/2000/svg" xmlns:xlink="http://www.w3.org/1999/xlink" x="0px" y="0px"
	 viewBox="-145 38.4 438.5 438.5" style="enable-background:new -145 38.4 438.5 438.5;" xml:space="preserve">
<style type="text/css">
	.st0{fill:#FFFFFF;}
</style>
<g>
	<g>
		<rect x="-139.6" y="184.3" class="st0" width="94.2" height="282.9"/>
		<path class="st0" d="M263.8,210.1c-19.8-21.6-46-32.4-78.5-32.4c-12,0-22.9,1.5-32.7,4.4c-9.8,2.9-18.1,7.1-24.8,12.4
			c-6.8,5.3-12.1,10.3-16.1,14.8c-3.8,4.3-7.5,9.4-11.1,15.1v-40.2H6.6L6.9,198c0.2,9.1,0.3,37.3,0.3,84.5
			c0,47.2-0.2,108.8-0.6,184.7h93.9V309.3c0-9.7,1-17.4,3.1-23.1c4-9.7,10-17.8,18.1-24.4c8.1-6.6,18.1-9.9,30.1-9.9
			c16.4,0,28.4,5.7,36.1,17c7.7,11.3,11.6,27,11.6,47v151.3h93.9V305C293.5,263.4,283.6,231.7,263.8,210.1z"/>
		<path class="st0" d="M-91.9,48.1c-15.8,0-28.6,4.6-38.4,13.8c-9.8,9.2-14.7,20.9-14.7,35c0,13.9,4.8,25.5,14.3,34.8
			c9.5,9.3,22.1,14,37.7,14h0.6c16,0,28.9-4.7,38.7-14c9.8-9.3,14.6-20.9,14.4-34.8c-0.2-14.1-5-25.7-14.6-35
			C-63.4,52.7-76.1,48.1-91.9,48.1z"/>
	</g>
</g>
</svg>
